<svg width="28" height="28" viewBox="0 0 28 28" fill="none" xmlns="http://www.w3.org/2000/svg">
<path fill-rule="evenodd" clip-rule="evenodd" d="M3.53127 25.375C3.28889 25.375 3.05614 25.2744 2.89077 25.0967C2.72539 24.9191 2.64052 24.6803 2.65802 24.4379C3.14014 18.5981 8.03752 14 14.0006 14H14.0741C20.0031 14.0376 24.8629 18.6218 25.3371 24.4388C25.3546 24.6794 25.2706 24.9165 25.1061 25.0932C24.9416 25.27 24.7115 25.3697 24.47 25.3697C20.816 25.375 7.18527 25.375 3.53127 25.375ZM14.0006 2.625C16.6571 2.625 18.8131 4.781 18.8131 7.4375C18.8131 10.094 16.6571 12.25 14.0006 12.25C11.3441 12.25 9.18814 10.094 9.18814 7.4375C9.18814 4.781 11.3441 2.625 14.0006 2.625Z" fill="#F24236"/>
</svg>
