<svg width="32" height="32" viewBox="0 0 32 32" fill="none" xmlns="http://www.w3.org/2000/svg">
<path fill-rule="evenodd" clip-rule="evenodd" d="M4.03574 29C3.75874 29 3.49274 28.885 3.30374 28.682C3.11474 28.479 3.01774 28.206 3.03774 27.929C3.58874 21.255 9.18574 16 16.0007 16H16.0847C22.8607 16.043 28.4147 21.282 28.9567 27.93C28.9767 28.205 28.8807 28.476 28.6927 28.678C28.5047 28.88 28.2417 28.994 27.9657 28.994C23.7897 29 8.21174 29 4.03574 29ZM26.8177 26.995L23.0507 26.998C20.6997 26.998 18.3497 26.999 15.9997 26.999L5.17574 27C6.11874 21.886 10.6097 18 16.0007 18H16.0847C21.4277 18.034 25.8787 21.902 26.8177 26.995ZM16.0007 3C19.0367 3 21.5007 5.464 21.5007 8.5C21.5007 11.536 19.0367 14 16.0007 14C12.9647 14 10.5007 11.536 10.5007 8.5C10.5007 5.464 12.9647 3 16.0007 3ZM16.0007 5C17.9327 5 19.5007 6.568 19.5007 8.5C19.5007 10.432 17.9327 12 16.0007 12C14.0687 12 12.5007 10.432 12.5007 8.5C12.5007 6.568 14.0687 5 16.0007 5Z" fill="#2B4F97"/>
</svg>
