<svg width="32" height="32" viewBox="0 0 32 32" fill="none" xmlns="http://www.w3.org/2000/svg">
<path fill-rule="evenodd" clip-rule="evenodd" d="M7 5V4C7 3.448 7.448 3 8 3C8.552 3 9 3.448 9 4V5H23V4C23 3.448 23.448 3 24 3C24.552 3 25 3.448 25 4V5H27C27.53 5 28.039 5.211 28.414 5.586C28.789 5.961 29 6.47 29 7C29 11.52 29 22.48 29 27C29 27.53 28.789 28.039 28.414 28.414C28.039 28.789 27.53 29 27 29C22.157 29 9.843 29 5 29C4.47 29 3.961 28.789 3.586 28.414C3.211 28.039 3 27.53 3 27C3 22.48 3 11.52 3 7C3 6.47 3.211 5.961 3.586 5.586C3.961 5.211 4.47 5 5 5H7ZM27 11V27H5V11H27ZM24 22C24 21.448 23.552 21 23 21C20.127 21 11.873 21 9 21C8.448 21 8 21.448 8 22C8 22.552 8.448 23 9 23C11.873 23 20.127 23 23 23C23.552 23 24 22.552 24 22ZM24 16C24 15.448 23.552 15 23 15C20.127 15 11.873 15 9 15C8.448 15 8 15.448 8 16C8 16.552 8.448 17 9 17C11.873 17 20.127 17 23 17C23.552 17 24 16.552 24 16ZM27 9H5V7H27V9Z" fill="#2B4F97"/>
</svg>
