<svg width="32" height="32" viewBox="0 0 32 32" fill="none" xmlns="http://www.w3.org/2000/svg">
<path fill-rule="evenodd" clip-rule="evenodd" d="M8.92826 13.6126V7.00009L15.9284 3L22.9282 7.00009V13.5305L29 17V25.0001L22.0001 29L16.0001 25.5716L10.0001 29L3 25.0001V17L8.92826 13.6126ZM4.99993 23.8395L9.5717 26.4519V21.3303L4.99993 18.6905V23.8395ZM17 23.8395L21.5717 26.4519V21.3303L17 18.6905V23.8395ZM10.5718 21.2473V26.3698L15 23.8395V18.6908L10.5718 21.2473ZM22.5718 21.2473V26.3698L27.0001 23.8395V18.6908L22.5718 21.2473ZM5.54377 17.85L10.0001 20.4226L14.4562 17.85L10.0001 15.3036L5.54377 17.85ZM17.5438 17.85L22.0001 20.4226L26.4562 17.85L22.0001 15.3036L17.5438 17.85ZM10.9282 13.5305L15.5 16.1429V11.3302L10.9282 8.69066V13.5305ZM16.5 11.2471V16.1429L20.9283 13.6126V8.69066L16.5 11.2471ZM11.472 7.84994L15.9284 10.4227L20.3845 7.84994L15.9284 5.30353L11.472 7.84994Z" fill="#F24236"/>
</svg>
