<svg width="48" height="48" viewBox="0 0 48 48" fill="none" xmlns="http://www.w3.org/2000/svg">
<path fill-rule="evenodd" clip-rule="evenodd" d="M24 33.6C26.6496 33.6 28.8 35.7504 28.8 38.4C28.8 41.0496 26.6496 43.2 24 43.2C21.3504 43.2 19.2 41.0496 19.2 38.4C19.2 35.7504 21.3504 33.6 24 33.6ZM24 36C25.3248 36 26.4 37.0752 26.4 38.4C26.4 39.7248 25.3248 40.8 24 40.8C22.6752 40.8 21.6 39.7248 21.6 38.4C21.6 37.0752 22.6752 36 24 36ZM29.9376 8.9652C30.1032 7.9248 29.8044 6.86399 29.1204 6.06239C28.4364 5.26199 27.4356 4.79999 26.382 4.79999C24.8592 4.79999 23.1408 4.79999 21.618 4.79999C20.5644 4.79999 19.5636 5.26199 18.8796 6.06239C18.1956 6.86399 17.8968 7.9248 18.0624 8.9652C18.978 14.718 20.5932 24.87 21.2784 29.1768C21.4632 30.342 22.4688 31.2 23.6484 31.2C23.8812 31.2 24.1188 31.2 24.3516 31.2C25.5312 31.2 26.5368 30.342 26.7216 29.1768C27.4068 24.87 29.022 14.718 29.9376 8.9652ZM23.6484 28.8L20.4324 8.5884C20.3772 8.2416 20.4768 7.8876 20.7048 7.6212C20.9328 7.3536 21.2664 7.19999 21.618 7.19999C23.1408 7.19999 24.8592 7.19999 26.382 7.19999C26.7336 7.19999 27.0672 7.3536 27.2952 7.6212C27.5232 7.8876 27.6228 8.2416 27.5676 8.5884L24.3516 28.8H23.6484Z" fill="#FBFCFE"/>
</svg>
