<svg width="32" height="32" viewBox="0 0 32 32" fill="none" xmlns="http://www.w3.org/2000/svg">
<path fill-rule="evenodd" clip-rule="evenodd" d="M21 15C21 13.939 20.579 12.922 19.828 12.172C19.078 11.421 18.061 11 17 11H7C5.939 11 4.922 11.421 4.172 12.172C3.421 12.922 3 13.939 3 15V25C3 26.061 3.421 27.078 4.172 27.828C4.922 28.579 5.939 29 7 29H17C18.061 29 19.078 28.579 19.828 27.828C20.579 27.078 21 26.061 21 25V15ZM19 15V25C19 25.53 18.789 26.039 18.414 26.414C18.039 26.789 17.53 27 17 27H7C6.47 27 5.961 26.789 5.586 26.414C5.211 26.039 5 25.53 5 25V15C5 14.47 5.211 13.961 5.586 13.586C5.961 13.211 6.47 13 7 13H17C17.53 13 18.039 13.211 18.414 13.586C18.789 13.961 19 14.47 19 15ZM17 7C21.415 7 25 10.585 25 15V15.001C25 15.553 24.553 16 24.001 16C24 16 24 16 23.999 16C23.447 16 23 15.553 23 15.001C23 15 23 15 23 15C23 11.689 20.311 9 17 9C16.448 9 16 8.552 16 8V7.999C16 7.447 16.447 7 16.999 7C17 7 17 7 17 7ZM27 15C27 9.481 22.519 5 17 5C16.448 5 16 4.552 16 4V3.999C16 3.447 16.447 3 16.999 3C17 3 17 3 17 3C23.623 3 29 8.377 29 15C29 15.552 28.552 16 28 16C27.448 16 27 15.552 27 15Z" fill="#2B4F97"/>
</svg>
