<svg width="32" height="32" viewBox="0 0 32 32" fill="none" xmlns="http://www.w3.org/2000/svg">
<path fill-rule="evenodd" clip-rule="evenodd" d="M21 11V5C21 4.47 20.789 3.961 20.414 3.586C20.039 3.211 19.53 3 19 3C17.257 3 14.743 3 13 3C12.47 3 11.961 3.211 11.586 3.586C11.211 3.961 11 4.47 11 5C11 7.37 11 11 11 11H5C4.47 11 3.961 11.211 3.586 11.586C3.211 11.961 3 12.47 3 13C3 14.743 3 17.257 3 19C3 19.53 3.211 20.039 3.586 20.414C3.961 20.789 4.47 21 5 21C7.37 21 11 21 11 21V27C11 27.53 11.211 28.039 11.586 28.414C11.961 28.789 12.47 29 13 29C14.743 29 17.257 29 19 29C19.53 29 20.039 28.789 20.414 28.414C20.789 28.039 21 27.53 21 27C21 24.63 21 21 21 21H27C27.53 21 28.039 20.789 28.414 20.414C28.789 20.039 29 19.53 29 19C29 17.257 29 14.743 29 13C29 12.47 28.789 11.961 28.414 11.586C28.039 11.211 27.53 11 27 11C24.63 11 21 11 21 11ZM19 5C19 5 19 9.855 19 12.001C19 12.553 19.448 13 20 13C22.146 13 27 13 27 13V19C27 19 22.145 19 19.999 19C19.447 19 19 19.448 19 20C19 22.146 19 27 19 27H13C13 27 13 22.145 13 19.999C13 19.447 12.552 19 12 19C9.854 19 5 19 5 19V13C5 13 9.855 13 12.001 13C12.553 13 13 12.552 13 12C13 9.854 13 5 13 5H19Z" fill="#2B4F97"/>
</svg>
