<svg width="32" height="32" viewBox="0 0 32 32" fill="none" xmlns="http://www.w3.org/2000/svg">
<path fill-rule="evenodd" clip-rule="evenodd" d="M18.5439 26.159L18.235 26.5039C17.666 27.1394 16.8533 27.5028 16.0001 27.5028C15.1469 27.5028 14.334 27.1394 13.765 26.5039C10.5955 22.9641 5.17585 16.9108 5.17585 16.9108L5.17681 16.9099C3.83208 15.5409 3 13.6502 3 11.5631C3 7.38881 6.32857 4 10.4285 4C12.0624 4 13.5737 4.53808 14.8008 5.4496C15.5057 5.99945 16.4943 5.99921 17.1987 5.44888C18.4265 4.53808 19.9378 4 21.5715 4C25.6714 4 29 7.38881 29 11.5631C29 13.4519 28.3184 15.1802 27.1921 16.5062C28.3117 17.6738 29 19.2585 29 21.0026C29 24.5901 26.0876 27.5028 22.5001 27.5028C21.0121 27.5028 19.64 27.0017 18.5439 26.159ZM22.5001 15.5028C25.5356 15.5028 28.0002 17.9671 28.0002 21.0026C28.0002 24.0381 25.5356 26.5027 22.5001 26.5027C19.4645 26.5027 17 24.0381 17 21.0026C17 17.9671 19.4645 15.5028 22.5001 15.5028ZM25.6004 15.2894C24.6783 14.7876 23.6223 14.5027 22.5001 14.5027C18.9125 14.5027 16.0001 17.4153 16.0001 21.0026C16.0001 22.3759 16.4268 23.6503 17.155 24.7003L17.1596 24.7068L16.7451 25.1697C16.5555 25.3817 16.2845 25.5026 16.0001 25.5026C15.7157 25.5026 15.4448 25.3817 15.2552 25.1697L6.71089 15.6273C6.67729 15.5863 6.64129 15.5467 6.60361 15.5085C5.61169 14.4986 4.99993 13.1027 4.99993 11.5631C4.99993 8.50241 7.42249 5.99993 10.4285 5.99993C11.6016 5.99993 12.6874 6.38225 13.5735 7.02977C15.0164 8.13473 16.9894 8.13305 18.4066 7.04321C19.2932 6.38921 20.3881 5.99993 21.5715 5.99993C24.5775 5.99993 27.0001 8.50241 27.0001 11.5631C27.0001 12.9943 26.4716 14.3013 25.6004 15.2894ZM21.4503 22.3641C21.7318 22.6454 22.1132 22.8033 22.5111 22.8033C22.9088 22.8033 23.2904 22.6454 23.5717 22.3639C23.6357 22.3001 23.6948 22.241 23.7461 22.1897C23.8738 22.062 23.9775 21.9122 24.0519 21.7476C24.4393 20.8915 25.693 18.1214 25.693 18.1214C25.693 18.1214 22.9342 19.3548 22.0633 19.744C21.8914 19.8208 21.7354 19.9293 21.6037 20.0637C21.5521 20.1168 21.4925 20.1772 21.4285 20.2428C20.8529 20.8303 20.858 21.7716 21.4395 22.3531C21.4431 22.3567 21.4467 22.3603 21.4503 22.3641Z" fill="#2B4F97"/>
</svg>
