<svg width="32" height="32" viewBox="0 0 32 32" fill="none" xmlns="http://www.w3.org/2000/svg">
<path fill-rule="evenodd" clip-rule="evenodd" d="M5.17681 16.9099C3.83208 15.5409 3 13.6502 3 11.5631C3 7.38881 6.32857 4 10.4285 4C12.0624 4 13.5737 4.53808 14.8008 5.4496C15.5057 5.99945 16.4943 5.99921 17.1987 5.44888C18.4265 4.53808 19.9378 4 21.5715 4C25.6714 4 29 7.38881 29 11.5631C29 13.6502 28.1679 15.5409 26.8232 16.9099L26.8244 16.9108C26.8244 16.9108 21.4045 22.9641 18.235 26.5039C17.666 27.1394 16.8533 27.5028 16.0001 27.5028C15.1469 27.5028 14.334 27.1394 13.765 26.5039C10.5955 22.9641 5.17585 16.9108 5.17585 16.9108L5.17681 16.9099ZM7.04473 16L15.2552 25.1697C15.4448 25.3817 15.7157 25.5026 16.0001 25.5026C16.2845 25.5026 16.5555 25.3817 16.7451 25.1697L25.2891 15.6273C25.3229 15.5863 25.3587 15.5467 25.3964 15.5085C26.3883 14.4986 27.0001 13.1027 27.0001 11.5631C27.0001 8.50241 24.5775 5.99993 21.5715 5.99993C20.3881 5.99993 19.2932 6.38921 18.4066 7.04321C16.9894 8.13305 15.0164 8.13473 13.5735 7.02977C12.6874 6.38225 11.6016 5.99993 10.4285 5.99993C7.42249 5.99993 4.99993 8.50241 4.99993 11.5631C4.99993 12.8587 5.43313 14.0524 6.16153 15H9.49994C9.64418 15 9.78146 15.0624 9.87626 15.1708L12.8016 18.514L15.5256 10.342C15.5854 10.1627 15.7412 10.0324 15.9281 10.0053C16.1151 9.97794 16.3013 10.0586 16.4096 10.2134L19.7605 15H20.5856C20.7915 14.4177 21.3473 14.0001 22.0001 14.0001C22.8279 14.0001 23.5001 14.6721 23.5001 15.5001C23.5001 16.3279 22.8279 17.0001 22.0001 17.0001C21.3473 17.0001 20.7915 16.5823 20.5856 16H19.5001C19.3369 16 19.184 15.9204 19.0904 15.7867C19.0904 15.7867 16.1602 11.6008 16.1602 11.6006L13.4744 19.6581C13.4177 19.8283 13.2744 19.9548 13.0988 19.9903C12.9228 20.0256 12.7419 19.9641 12.6238 19.8292L9.27314 16H7.04473Z" fill="#F24236"/>
</svg>
