<svg width="32" height="32" viewBox="0 0 32 32" fill="none" xmlns="http://www.w3.org/2000/svg">
<path fill-rule="evenodd" clip-rule="evenodd" d="M13.0001 29V17.9941H19.0001V29H28.0002C28.2654 29 28.5198 28.8946 28.7072 28.707C28.8946 28.5193 29 28.2647 29 27.9994C29 25.7095 29 20.0686 29 17.2504C29 16.189 28.5786 15.1711 27.8286 14.4204C25.1873 11.778 18.8338 5.42106 16.7072 3.29302C16.3167 2.90233 15.6836 2.90233 15.2928 3.29302C13.1662 5.42106 6.81265 11.778 4.17168 14.4204C3.42144 15.1711 3 16.189 3 17.2504C3 20.0686 3 25.7095 3 27.9994C3 28.2647 3.10536 28.5193 3.2928 28.707C3.48048 28.8946 3.73488 29 4.00008 29H13.0001Z" fill="#F24236"/>
</svg>
