<svg width="28" height="28" viewBox="0 0 28 28" fill="none" xmlns="http://www.w3.org/2000/svg">
<path fill-rule="evenodd" clip-rule="evenodd" d="M25.375 15.0943C25.375 14.1653 25.0063 13.2747 24.35 12.6178C22.039 10.3057 16.4796 4.74336 14.6188 2.88153C14.2771 2.53946 13.7231 2.53946 13.3813 2.88153C11.5204 4.74336 5.9611 10.3057 3.65025 12.6178C2.99379 13.2747 2.62503 14.1653 2.62503 15.0943C2.62503 17.56 2.62503 22.4958 2.62503 24.4996C2.62503 24.7318 2.71722 24.9545 2.88123 25.1186C3.04545 25.2827 3.26805 25.375 3.5001 25.375C7.11736 25.375 20.8829 25.375 24.5002 25.375C24.7322 25.375 24.9548 25.2827 25.1188 25.1186C25.2828 24.9545 25.375 24.7318 25.375 24.4996C25.375 22.4958 25.375 17.56 25.375 15.0943ZM17.5 23.6241H23.6251V15.0943C23.6251 14.6297 23.4407 14.1845 23.1125 13.856L14.0001 4.73852L4.88758 13.856C4.55935 14.1845 4.37497 14.6297 4.37497 15.0943V23.6241H10.5001V14.8692H17.5V23.6241ZM15.7501 16.6203V23.6241H12.25V16.6203H15.7501Z" fill="#2B4F97"/>
</svg>
