<svg width="36" height="36" viewBox="0 0 36 36" fill="none" xmlns="http://www.w3.org/2000/svg">
<path fill-rule="evenodd" clip-rule="evenodd" d="M14.8535 14.3967C14.704 13.7465 14.6251 13.0699 14.6251 12.3749C14.6251 7.40773 18.6579 3.375 23.6251 3.375C28.5923 3.375 32.625 7.40773 32.625 12.3749C32.625 17.3424 28.5923 21.3751 23.6251 21.3751H21.3751L16.875 25.875H14.6251V28.1252H12.3749V30.3751H10.125V32.625H3.375V25.875L14.8535 14.3967ZM7.8751 30.3751H5.62492V26.807L17.3254 15.1068L17.0462 13.8926C16.9342 13.4045 16.875 12.8966 16.875 12.3749C16.875 8.64947 19.8996 5.62492 23.6251 5.62492C27.3505 5.62492 30.3751 8.64947 30.3751 12.3749C30.3751 16.1004 27.3505 19.125 23.6251 19.125H20.4431L15.943 23.6251H12.3749V25.875H10.125V28.1252H7.8751V30.3751V30.3751ZM25.875 7.8751C27.117 7.8751 28.1252 8.88329 28.1252 10.125C28.1252 11.3668 27.117 12.3749 25.875 12.3749C24.6332 12.3749 23.6251 11.3668 23.6251 10.125C23.6251 8.88329 24.6332 7.8751 25.875 7.8751Z" fill="#2B4F97"/>
</svg>
