<svg width="28" height="28" viewBox="0 0 28 28" fill="none" xmlns="http://www.w3.org/2000/svg">
<path fill-rule="evenodd" clip-rule="evenodd" d="M20.5783 14H22.5312L25.375 25.375H2.625L5.46875 14H7.42175L7.45849 14.0656C7.77961 14.6379 8.13574 15.2031 8.50674 15.75H6.83551L4.86676 23.625H23.1332L21.1645 15.75H19.4933C19.8643 15.2031 20.2204 14.6379 20.5415 14.0656L20.5783 14ZM14 19.6875C14 19.6875 20.398 13.2895 20.398 9.023C20.398 5.49238 17.5315 2.625 14 2.625C10.4685 2.625 7.60114 5.49238 7.60114 9.023C7.60114 13.2895 14 19.6875 14 19.6875ZM14 17.1133C13.2265 16.2348 12.2106 15.0001 11.3102 13.6491C10.2874 12.1152 9.35114 10.444 9.35114 9.023C9.35114 6.4575 11.4345 4.375 14 4.375C16.5655 4.375 18.648 6.4575 18.648 9.023C18.648 10.444 17.7126 12.1152 16.6898 13.6491C15.7894 15.0001 14.7735 16.2348 14 17.1133ZM14 6.398C15.449 6.398 16.625 7.57488 16.625 9.023C16.625 10.472 15.449 11.648 14 11.648C12.551 11.648 11.375 10.472 11.375 9.023C11.375 7.57488 12.551 6.398 14 6.398Z" fill="#2B4F97"/>
</svg>
