<svg width="32" height="32" viewBox="0 0 32 32" fill="none" xmlns="http://www.w3.org/2000/svg">
<path fill-rule="evenodd" clip-rule="evenodd" d="M17.0133 10.0001H17.0503C17.2003 9.04945 17.7974 8.21473 18.6736 7.76953C19.6924 7.25208 20.9162 7.34857 21.8409 8.01937C22.3948 8.42137 22.9586 8.83057 23.5101 9.23065C26.4532 11.3662 28.2828 14.7048 28.4966 18.3293C28.6639 21.1678 28.859 24.4779 28.9965 26.8087C29.0359 27.4786 28.74 28.1242 28.2062 28.5324C27.6724 28.9404 26.9704 29.0578 26.3325 28.8456C24.1156 28.1083 21.0868 27.1011 19.0917 26.4375C17.8504 26.0247 17.0133 24.8657 17.0133 23.5603C17.0133 23.5603 17.0133 16.7237 17.0133 14.1094C17.0133 13.5571 16.5655 13.1095 16.0132 13.1095C16.0043 13.1095 15.9955 13.1095 15.9866 13.1095C15.4343 13.1095 14.9867 13.5571 14.9867 14.1094C14.9867 16.7328 14.9867 23.611 14.9867 23.611C14.9867 24.9163 14.1494 26.0753 12.9081 26.4881C10.9132 27.1517 7.88417 28.159 5.66729 28.8963C5.02937 29.1084 4.32736 28.9911 3.79384 28.5828C3.26008 28.1748 2.96392 27.5292 3.00352 26.8594C3.1408 24.5285 3.33592 21.2184 3.50344 18.3799C3.71704 14.7552 5.54681 11.4168 8.48993 9.28129C9.04121 8.88097 9.60521 8.47201 10.1591 8.07001C11.0836 7.39896 12.3074 7.30248 13.3264 7.82017C14.1868 8.25745 14.7784 9.07033 14.9414 10.0001H14.9867V3H17.0133V10.0001ZM5.02649 26.9782L5.52641 18.4987C5.70449 15.4781 7.22921 12.696 9.68177 10.9164L11.351 9.70513C11.6591 9.48145 12.0671 9.44929 12.4067 9.62185C12.7463 9.79441 12.9602 10.1424 12.9602 10.5228C12.9602 14.8834 12.9602 20.5529 12.9602 23.611C12.9602 24.0461 12.6811 24.4323 12.2673 24.57L5.02649 26.9782ZM26.9736 26.9275L19.7325 24.5194C19.3187 24.3819 19.0396 23.9955 19.0396 23.5603C19.0396 20.5023 19.0396 14.833 19.0396 10.4722C19.0396 10.092 19.2535 9.74401 19.5931 9.57145C19.9327 9.39889 20.3407 9.43105 20.6488 9.65449C20.6488 9.65473 22.318 10.8658 22.318 10.8658C24.7706 12.6454 26.2953 15.4275 26.4734 18.4481L26.9736 26.9275Z" fill="#F24236"/>
</svg>
