<svg width="32" height="32" viewBox="0 0 32 32" fill="none" xmlns="http://www.w3.org/2000/svg">
<path fill-rule="evenodd" clip-rule="evenodd" d="M14 5.235C10.438 6.089 7.722 9.176 7.468 12.981C7.314 15.297 7.163 17.552 7.076 18.857C7.029 19.565 6.61 20.195 5.975 20.512C5.368 20.816 4.601 21.199 3.998 21.501C3.386 21.807 3 22.432 3 23.116C3 23.117 3 23.117 3 23.118C3 23.617 3.198 24.096 3.551 24.449C3.904 24.802 4.383 25 4.882 25H12C12 27.209 13.791 29 16 29C18.209 29 20 27.209 20 25H27.118C27.617 25 28.096 24.802 28.449 24.449C28.802 24.096 29 23.617 29 23.118C29 23.117 29 23.117 29 23.116C29 22.432 28.614 21.807 28.002 21.501C27.399 21.199 26.632 20.816 26.025 20.512C25.39 20.195 24.971 19.565 24.924 18.857C24.837 17.552 24.686 15.297 24.532 12.981C24.278 9.176 21.562 6.089 18 5.235V5C18 3.895 17.105 3 16 3C14.895 3 14 3.895 14 5V5.235ZM18 25H14C14 26.105 14.895 27 16 27C17.105 27 18 26.105 18 25ZM26.528 23H5.472L6.869 22.301C8.139 21.666 8.977 20.406 9.072 18.99L9.463 13.114C9.693 9.674 12.551 7 15.999 7H16.001C19.449 7 22.307 9.674 22.537 13.114L22.928 18.99C23.023 20.406 23.861 21.666 25.131 22.301L26.528 23Z" fill="#2B4F97"/>
</svg>
