<svg width="48" height="48" viewBox="0 0 48 48" fill="none" xmlns="http://www.w3.org/2000/svg">
<path fill-rule="evenodd" clip-rule="evenodd" d="M38.9804 35.1491C39.8066 34.3229 39.8066 32.9832 38.9804 32.1571C37.8858 31.0625 36.3972 29.5739 35.2485 28.4263C34.2868 27.4635 32.7281 27.4635 31.7665 28.4263L30.337 29.8546C24.1363 28.7157 19.2839 23.8633 18.145 17.6626L19.5733 16.2332C20.5361 15.2715 20.5361 13.7128 19.5733 12.7511C18.4257 11.6024 16.9371 10.1138 15.8425 9.01917C15.0163 8.19299 13.6767 8.19299 12.8506 9.01917C11.8828 9.98694 10.6294 11.2404 9.67636 12.1946C8.77261 13.0971 8.31089 14.3518 8.41432 15.6249C8.41432 15.6261 8.41432 15.6274 8.41432 15.6274C9.44611 28.4066 19.593 38.5535 32.3722 39.5853C32.3722 39.5853 32.3735 39.5853 32.3747 39.5853C33.6478 39.6887 34.9025 39.227 35.805 38.3232C36.7592 37.3702 38.0127 36.1168 38.9804 35.1491ZM14.3465 10.9178L17.8766 14.4478C17.9012 14.4724 17.9012 14.5118 17.8766 14.5364L16.4471 15.966C15.8893 16.5237 15.6418 17.3204 15.7847 18.0961C17.1033 25.2768 22.7228 30.8962 29.9036 32.2149C30.6793 32.3577 31.4759 32.1103 32.0336 31.5525L33.4631 30.123C33.4878 30.0984 33.5272 30.0984 33.5518 30.123L37.0818 33.653L34.1083 36.6265C33.7032 37.0329 33.1393 37.2397 32.568 37.1929H32.5655C20.9584 36.2559 11.7436 27.0412 10.8067 15.434V15.4316C10.7599 14.8603 10.9667 14.2964 11.373 13.8913L14.3465 10.9178Z" fill="#FBFCFE"/>
</svg>
