<svg width="32" height="32" viewBox="0 0 32 32" fill="none" xmlns="http://www.w3.org/2000/svg">
<path fill-rule="evenodd" clip-rule="evenodd" d="M14.9911 14.866L11.4501 21C10.9191 21.919 10.7751 23.011 11.0501 24.036C11.3251 25.06 11.9951 25.934 12.9141 26.464L12.3841 28.441L11.9141 28.197C10.5361 27.401 9.53006 26.09 9.11806 24.553C8.70606 23.016 8.92206 21.378 9.71806 20C12.1011 15.873 15.4181 10.128 17.8011 6C18.5961 4.622 19.9071 3.616 21.4441 3.204C22.9811 2.793 24.6191 3.008 25.9971 3.804C27.3751 4.599 28.3811 5.91 28.7921 7.447C29.2041 8.984 28.9891 10.622 28.1931 12C25.8101 16.128 22.4931 21.873 20.1101 26C19.3141 27.378 18.0041 28.384 16.4671 28.796C15.1011 29.162 13.6561 29.032 12.3841 28.441L12.9141 26.464C13.8321 26.995 14.9241 27.139 15.9491 26.864C16.9741 26.59 17.8471 25.919 18.3781 25L21.9191 18.866L14.9911 14.866ZM7.20106 20.4C4.75006 19.31 3.03906 16.853 3.03906 14C3.03906 10.136 6.17606 7 10.0391 7C11.5801 7 13.0051 7.499 14.1621 8.344L7.20106 20.4ZM6.53106 17.561C5.61006 16.654 5.03906 15.393 5.03906 14C5.03906 11.24 7.28006 9 10.0391 9C10.5001 9 10.9461 9.062 11.3701 9.179L6.53106 17.561ZM22.9191 17.134L15.9911 13.134L19.5331 7C20.0631 6.081 20.9371 5.411 21.9621 5.136C22.9861 4.862 24.0781 5.005 24.9971 5.536C25.0021 5.539 25.0081 5.542 25.0131 5.545C25.9161 6.066 26.5861 6.94 26.8611 7.965C27.1351 8.989 26.9911 10.081 26.4611 11L22.9191 17.134Z" fill="#2B4F97"/>
</svg>
