<svg width="32" height="32" viewBox="0 0 32 32" fill="none" xmlns="http://www.w3.org/2000/svg">
<path fill-rule="evenodd" clip-rule="evenodd" d="M13.2591 13.866L9.71806 20C8.92206 21.378 8.70606 23.016 9.11806 24.553C9.53006 26.09 10.5361 27.401 11.9141 28.197C13.2921 28.992 14.9301 29.208 16.4671 28.796C18.0041 28.384 19.3141 27.378 20.1101 26L23.6511 19.866L13.2591 13.866ZM7.20106 20.4C4.75006 19.31 3.03906 16.853 3.03906 14C3.03906 10.136 6.17606 7 10.0391 7C11.5801 7 13.0051 7.499 14.1621 8.344L7.20106 20.4ZM14.2591 12.134L24.6511 18.134L28.1931 12C28.9891 10.622 29.2041 8.984 28.7921 7.447C28.3811 5.91 27.3751 4.599 25.9971 3.804C24.6191 3.008 22.9811 2.793 21.4441 3.204C19.9071 3.616 18.5961 4.622 17.8011 6L14.2591 12.134Z" fill="#2B4F97"/>
</svg>
