<svg width="32" height="32" viewBox="0 0 32 32" fill="none" xmlns="http://www.w3.org/2000/svg">
<path fill-rule="evenodd" clip-rule="evenodd" d="M6.27509 23.604L3.43879 26.4403C3.15771 26.7211 3 27.1023 3 27.4996C3 27.8971 3.15771 28.278 3.43879 28.5591C3.43927 28.5596 3.43975 28.5601 3.44023 28.5605C4.02593 29.1465 4.976 29.1465 5.5617 28.5605L8.3908 25.7317H10.2696C11.3308 25.7317 12.3483 25.3102 13.0984 24.5598C16.0128 21.6455 23.653 14.0053 27.8304 9.82815C29.3918 8.26645 29.3918 5.73476 27.8304 4.17307C27.8299 4.17283 27.8294 4.17235 27.8289 4.17187C27.0785 3.42151 26.061 3 25.0001 3C23.9388 3 22.9213 3.42151 22.1712 4.17187C17.9948 8.34807 10.3596 15.9832 7.4436 18.8992C6.69156 19.6513 6.27005 20.6717 6.27173 21.735L6.27509 23.604ZM8.51802 23.7312L8.2751 23.4859L8.27222 21.7314C8.27126 21.1998 8.48201 20.6897 8.85791 20.3138L23.5855 5.58618C23.9607 5.211 24.4696 5.00024 25.0001 5.00024C25.5305 5.00024 26.0392 5.211 26.4144 5.58618L26.4158 5.58762C27.1962 6.36799 27.1962 7.63323 26.4158 8.4136L11.6841 23.1455C11.3089 23.5205 10.8001 23.7312 10.2696 23.7312H8.51802ZM23.646 7.64739C23.3798 7.08978 23.4777 6.40135 23.9391 5.93976C24.5245 5.3543 25.4753 5.3543 26.0608 5.93976C26.6462 6.52521 26.6462 7.47601 26.0608 8.06146C25.5992 8.52306 24.9108 8.62075 24.3531 8.35455L15.9902 16.7175C15.8966 16.8114 15.7694 16.8642 15.6366 16.8642C15.5041 16.8642 15.3769 16.8114 15.283 16.7175C15.1892 16.6239 15.1366 16.4967 15.1366 16.3639C15.1366 16.2314 15.1892 16.1042 15.283 16.0104L23.646 7.64739Z" fill="#F24236"/>
</svg>
