<svg width="32" height="32" viewBox="0 0 32 32" fill="none" xmlns="http://www.w3.org/2000/svg">
<path fill-rule="evenodd" clip-rule="evenodd" d="M18.3574 27.8095C18.4589 27.6104 18.6246 27.4513 18.8278 27.3582C20.5233 26.5558 22.3402 25.1915 23.9679 23.384C27.6424 19.3028 28.9692 14.4978 26.9286 12.6604C24.888 10.823 20.248 12.6446 16.5733 16.7258C14.9458 18.5333 13.779 20.483 13.161 22.2539C13.0893 22.4665 12.9477 22.6482 12.7595 22.77C12.4768 22.9541 12.2139 23.1786 11.9772 23.4413C10.5073 25.0738 10.6117 27.5676 12.2103 29.0069C13.8086 30.4462 16.2996 30.2893 17.7694 28.6568C18.0061 28.3941 18.2019 28.109 18.3574 27.8095ZM14.3545 24.0206L16.947 26.355C16.8094 26.5205 16.6896 26.7012 16.59 26.8949C16.5109 27.047 16.4109 27.1917 16.2907 27.3252C15.5633 28.1331 14.3328 28.2401 13.5419 27.528C12.7509 26.8159 12.7287 25.5808 13.4561 24.7731C13.5741 24.6418 13.7047 24.5293 13.8459 24.4373C14.0312 24.3175 14.2014 24.1775 14.3545 24.0206ZM17.7093 25.7023L14.9248 23.1951C14.9704 23.0967 15.011 22.9954 15.0461 22.8918C15.5832 21.3527 16.6215 19.6464 18.0522 18.0574C19.9452 15.9552 22.1033 14.5018 23.9321 14.0557C24.6064 13.8912 25.2092 13.7902 25.597 14.1393C25.9848 14.4885 25.9473 15.0986 25.8542 15.7864C25.6018 17.6517 24.382 19.9499 22.489 22.0524C21.0611 23.6378 19.4767 24.8471 17.9887 25.5535C17.8924 25.5987 17.799 25.6483 17.7093 25.7023ZM11.4022 17.8494C11.5036 17.65 11.6694 17.491 11.8726 17.3981C13.5681 16.5957 15.385 15.2314 17.0127 13.4236C20.6872 9.34266 22.014 4.53741 19.9734 2.70028C17.9328 0.862902 13.2928 2.68451 9.61803 6.76571C7.99057 8.57323 6.82376 10.5228 6.20573 12.2938C6.13409 12.5061 5.99248 12.6881 5.8043 12.8096C5.52155 12.9938 5.25863 13.2185 5.02197 13.4812C3.55212 15.1136 3.65648 17.6075 5.25505 19.0468C6.85337 20.4861 9.34436 20.3292 10.8142 18.6967C11.0509 18.4338 11.2467 18.1486 11.4022 17.8494ZM7.39928 14.0605L9.99176 16.3948C9.85421 16.5603 9.73433 16.7411 9.63475 16.9345C9.5557 17.0867 9.45564 17.2314 9.33552 17.3651C8.60812 18.1728 7.37755 18.28 6.58663 17.5679C5.7957 16.8557 5.77349 15.6206 6.5009 14.8128C6.61887 14.6816 6.74949 14.5689 6.89063 14.477C7.07594 14.3574 7.24621 14.2174 7.39928 14.0605ZM10.754 15.7419L7.96955 13.235C8.01517 13.1366 8.05576 13.0353 8.09087 12.9317C8.62794 11.3923 9.66627 9.68631 11.097 8.09729C12.99 5.99484 15.1481 4.54171 16.9768 4.09562C17.6512 3.93108 18.254 3.83007 18.6418 4.1792C19.0296 4.5281 18.9921 5.13825 18.899 5.82625C18.6466 7.69156 17.4267 9.98983 15.5337 12.092C14.1059 13.6777 12.5214 14.8868 11.0334 15.5934C10.9372 15.6383 10.8438 15.688 10.754 15.7419Z" fill="#2B4F97"/>
</svg>
