<svg width="216" height="216" viewBox="0 0 216 216" fill="none" xmlns="http://www.w3.org/2000/svg">
<g clip-path="url(#clip0_1_637)">
<path fill-rule="evenodd" clip-rule="evenodd" d="M107.685 0.447998C48.3256 0.447998 0.133545 48.6401 0.133545 108C0.133545 167.359 48.3256 215.551 107.685 215.551C167.044 215.551 215.236 167.359 215.236 108C215.236 48.6401 167.044 0.447998 107.685 0.447998ZM107.685 11.2035C161.109 11.2035 204.481 54.5764 204.481 108C204.481 161.423 161.109 204.796 107.685 204.796C54.2619 204.796 10.8882 161.423 10.8882 108C10.8882 54.5764 54.2619 11.2035 107.685 11.2035Z" fill="url(#paint0_radial_1_637)" fill-opacity="0.5"/>
<path fill-rule="evenodd" clip-rule="evenodd" d="M107.687 21.9586C60.1986 21.9586 21.6453 60.5125 21.6453 108C21.6453 155.488 60.1986 194.041 107.687 194.041C155.174 194.041 193.728 155.488 193.728 108C193.728 60.5125 155.174 21.9586 107.687 21.9586ZM107.687 32.7137C149.238 32.7137 182.973 66.4487 182.973 108C182.973 149.551 149.238 183.286 107.687 183.286C66.1348 183.286 32.4005 149.551 32.4005 108C32.4005 66.4487 66.1348 32.7137 107.687 32.7137Z" fill="url(#paint1_radial_1_637)" fill-opacity="0.5"/>
<path fill-rule="evenodd" clip-rule="evenodd" d="M107.687 43.4689C72.0709 43.4689 43.1552 72.3842 43.1552 108C43.1552 143.616 72.0709 172.531 107.687 172.531C143.302 172.531 172.218 143.616 172.218 108C172.218 72.3842 143.302 43.4689 107.687 43.4689ZM107.687 54.224C137.366 54.224 161.462 78.3202 161.462 108C161.462 137.68 137.366 161.776 107.687 161.776C78.0069 161.776 53.9108 137.68 53.9108 108C53.9108 78.3202 78.0069 54.224 107.687 54.224Z" fill="url(#paint2_radial_1_637)" fill-opacity="0.5"/>
<path fill-rule="evenodd" clip-rule="evenodd" d="M53.9099 14.8591C20.6335 34.0712 0.134033 69.5766 0.134033 108.001C0.134033 167.361 48.3261 215.553 107.686 215.553C167.045 215.553 215.237 167.361 215.237 108.001C215.237 48.602 167.085 0.449997 107.686 0.449997C104.718 0.449997 102.308 2.85959 102.308 5.8269C102.308 8.79506 104.718 11.2047 107.686 11.2047C161.145 11.2047 204.482 54.5417 204.482 108.001C204.482 161.424 161.109 204.798 107.686 204.798C54.2624 204.798 10.8895 161.424 10.8895 108.001C10.8895 73.4192 29.3388 41.4643 59.2877 24.1731C61.8582 22.689 62.7403 19.3973 61.2562 16.8268C59.7721 14.2571 56.4804 13.375 53.9099 14.8591Z" fill="url(#paint3_angular_1_637)"/>
<path fill-rule="evenodd" clip-rule="evenodd" d="M21.6448 107.999C21.6448 155.519 60.1671 194.041 107.686 194.041C155.174 194.041 193.728 155.488 193.728 107.999C193.728 60.4804 155.205 21.958 107.686 21.958C104.718 21.958 102.309 24.3678 102.309 27.3356C102.309 30.304 104.718 32.7132 107.686 32.7132C149.266 32.7132 182.973 66.4206 182.973 107.999C182.973 149.551 149.238 183.286 107.686 183.286C66.1067 183.286 32.4 149.579 32.4 107.999C32.4 105.032 29.9901 102.622 27.0224 102.622C24.0546 102.622 21.6448 105.032 21.6448 107.999Z" fill="url(#paint4_angular_1_637)"/>
<path fill-rule="evenodd" clip-rule="evenodd" d="M51.8004 75.7341C46.137 85.5443 43.1552 96.672 43.1552 107.999C43.1552 143.615 72.0704 172.531 107.686 172.531C143.302 172.531 172.217 143.615 172.217 107.999C172.217 72.3599 143.326 43.4684 107.686 43.4684C104.718 43.4684 102.309 45.8784 102.309 48.8459C102.309 51.8139 104.718 54.224 107.686 54.224C137.386 54.224 161.462 78.2999 161.462 107.999C161.462 137.679 137.366 161.775 107.686 161.775C78.0064 161.775 53.9102 137.679 53.9102 107.999C53.9102 98.56 56.3952 89.2867 61.1147 81.1117C62.5989 78.5415 61.717 75.2496 59.1463 73.7658C56.5761 72.2816 53.2847 73.1639 51.8004 75.7341Z" fill="url(#paint5_angular_1_637)"/>
<path d="M75.6786 125.1L75.5186 124.7L83.8386 107.02L83.9586 110.34C83.4786 111.14 82.9452 111.847 82.3586 112.46C81.7986 113.073 81.1719 113.607 80.4786 114.06C79.8119 114.487 79.1186 114.82 78.3986 115.06C77.6786 115.273 76.9452 115.38 76.1986 115.38C74.6786 115.38 73.2786 114.98 71.9986 114.18C70.7186 113.38 69.6919 112.313 68.9186 110.98C68.1452 109.647 67.7586 108.193 67.7586 106.62C67.7586 104.727 68.1852 103.033 69.0386 101.54C69.8919 100.02 71.0519 98.82 72.5186 97.94C74.0119 97.06 75.6786 96.62 77.5186 96.62C78.8519 96.62 80.1052 96.86 81.2786 97.34C82.4519 97.82 83.4786 98.5 84.3586 99.38C85.2386 100.233 85.9319 101.233 86.4386 102.38C86.9452 103.5 87.1986 104.7 87.1986 105.98C87.1986 106.647 87.1319 107.367 86.9986 108.14C86.8652 108.887 86.6386 109.74 86.3186 110.7C86.0252 111.633 85.6252 112.713 85.1186 113.94C84.6119 115.14 83.9852 116.54 83.2386 118.14L79.9186 125.1H75.6786ZM77.1186 111.38C78.1586 111.38 79.0919 111.153 79.9186 110.7C80.7452 110.22 81.3852 109.593 81.8386 108.82C82.3186 108.02 82.5586 107.127 82.5586 106.14C82.5586 105.1 82.3319 104.167 81.8786 103.34C81.4252 102.487 80.7852 101.82 79.9586 101.34C79.1586 100.86 78.2386 100.62 77.1986 100.62C76.2386 100.62 75.3852 100.86 74.6386 101.34C73.8919 101.793 73.2919 102.433 72.8386 103.26C72.4119 104.06 72.1986 105.007 72.1986 106.1C72.1986 107.033 72.4119 107.9 72.8386 108.7C73.2919 109.5 73.8919 110.153 74.6386 110.66C75.3852 111.14 76.2119 111.38 77.1186 111.38ZM101.31 125.5C99.1765 125.5 97.3365 124.913 95.7898 123.74C94.2698 122.567 93.0965 120.913 92.2698 118.78C91.4432 116.62 91.0298 114.06 91.0298 111.1C91.0298 108.14 91.4432 105.593 92.2698 103.46C93.0965 101.3 94.2698 99.6333 95.7898 98.46C97.3365 97.2866 99.1765 96.7 101.31 96.7C103.443 96.7 105.283 97.2866 106.83 98.46C108.376 99.6333 109.563 101.3 110.39 103.46C111.216 105.593 111.63 108.14 111.63 111.1C111.63 114.06 111.216 116.62 110.39 118.78C109.563 120.913 108.376 122.567 106.83 123.74C105.283 124.913 103.443 125.5 101.31 125.5ZM101.31 121.58C103.256 121.58 104.763 120.673 105.83 118.86C106.896 117.02 107.43 114.433 107.43 111.1C107.43 107.767 106.896 105.193 105.83 103.38C104.763 101.54 103.256 100.62 101.31 100.62C99.3632 100.62 97.8565 101.54 96.7898 103.38C95.7232 105.193 95.1898 107.767 95.1898 111.1C95.1898 114.433 95.7232 117.02 96.7898 118.86C97.8565 120.673 99.3632 121.58 101.31 121.58ZM119.247 125.1L137.767 97.1H141.887L123.167 125.1H119.247ZM121.807 111.94C120.607 111.94 119.54 111.62 118.607 110.98C117.7 110.313 116.98 109.42 116.447 108.3C115.94 107.153 115.687 105.847 115.687 104.38C115.687 102.913 115.94 101.607 116.447 100.46C116.98 99.2866 117.713 98.38 118.647 97.74C119.58 97.0733 120.647 96.74 121.847 96.74C123.047 96.74 124.1 97.0733 125.007 97.74C125.94 98.38 126.66 99.2866 127.167 100.46C127.7 101.607 127.967 102.913 127.967 104.38C127.967 105.793 127.7 107.073 127.167 108.22C126.633 109.367 125.9 110.273 124.967 110.94C124.033 111.607 122.98 111.94 121.807 111.94ZM121.847 108.94C122.407 108.94 122.887 108.753 123.287 108.38C123.713 108.007 124.033 107.487 124.247 106.82C124.487 106.127 124.607 105.313 124.607 104.38C124.607 103.447 124.487 102.633 124.247 101.94C124.033 101.247 123.713 100.713 123.287 100.34C122.887 99.9666 122.393 99.78 121.807 99.78C121.247 99.78 120.753 99.98 120.327 100.38C119.9 100.753 119.567 101.287 119.327 101.98C119.113 102.647 119.007 103.447 119.007 104.38C119.007 105.313 119.113 106.127 119.327 106.82C119.567 107.487 119.9 108.007 120.327 108.38C120.753 108.753 121.26 108.94 121.847 108.94ZM139.527 125.46C138.327 125.46 137.26 125.127 136.327 124.46C135.42 123.793 134.7 122.9 134.167 121.78C133.633 120.633 133.367 119.34 133.367 117.9C133.367 116.433 133.62 115.127 134.127 113.98C134.66 112.807 135.393 111.9 136.327 111.26C137.26 110.593 138.327 110.26 139.527 110.26C140.727 110.26 141.78 110.593 142.687 111.26C143.62 111.9 144.34 112.807 144.847 113.98C145.38 115.127 145.647 116.433 145.647 117.9C145.647 119.313 145.38 120.593 144.847 121.74C144.313 122.887 143.58 123.793 142.647 124.46C141.74 125.127 140.7 125.46 139.527 125.46ZM139.527 122.5C140.087 122.5 140.58 122.313 141.007 121.94C141.433 121.54 141.753 121.007 141.967 120.34C142.207 119.647 142.327 118.833 142.327 117.9C142.327 116.967 142.207 116.167 141.967 115.5C141.753 114.807 141.433 114.273 141.007 113.9C140.58 113.5 140.087 113.3 139.527 113.3C138.94 113.3 138.433 113.487 138.007 113.86C137.58 114.233 137.247 114.767 137.007 115.46C136.793 116.153 136.687 116.967 136.687 117.9C136.687 118.833 136.793 119.647 137.007 120.34C137.247 121.007 137.58 121.54 138.007 121.94C138.433 122.313 138.94 122.5 139.527 122.5Z" fill="#2B4F97"/>
</g>
<defs>
<radialGradient id="paint0_radial_1_637" cx="0" cy="0" r="1" gradientUnits="userSpaceOnUse" gradientTransform="translate(107.685 108) rotate(90) scale(107.552 107.551)">
<stop stop-color="#3D51A4"/>
<stop offset="1" stop-color="#3D51A4" stop-opacity="0"/>
</radialGradient>
<radialGradient id="paint1_radial_1_637" cx="0" cy="0" r="1" gradientUnits="userSpaceOnUse" gradientTransform="translate(107.687 108) rotate(90) scale(86.0415 86.0415)">
<stop stop-color="#3D51A4"/>
<stop offset="1" stop-color="#3D51A4" stop-opacity="0"/>
</radialGradient>
<radialGradient id="paint2_radial_1_637" cx="0" cy="0" r="1" gradientUnits="userSpaceOnUse" gradientTransform="translate(107.686 108) rotate(90) scale(64.5311 64.5313)">
<stop stop-color="#3D51A4"/>
<stop offset="1" stop-color="#3D51A4" stop-opacity="0"/>
</radialGradient>
<radialGradient id="paint3_angular_1_637" cx="0" cy="0" r="1" gradientUnits="userSpaceOnUse" gradientTransform="translate(107.686 108.001) scale(107.552 107.551)">
<stop offset="0.675928" stop-color="#374A95"/>
<stop offset="0.738429" stop-color="#374A95" stop-opacity="0"/>
</radialGradient>
<radialGradient id="paint4_angular_1_637" cx="0" cy="0" r="1" gradientUnits="userSpaceOnUse" gradientTransform="translate(107.686 107.999) scale(86.0415 86.0415)">
<stop offset="0.675928" stop-color="#374A95"/>
<stop offset="0.738429" stop-color="#374A95" stop-opacity="0"/>
</radialGradient>
<radialGradient id="paint5_angular_1_637" cx="0" cy="0" r="1" gradientUnits="userSpaceOnUse" gradientTransform="translate(107.686 108) scale(64.5311 64.5313)">
<stop offset="0.675928" stop-color="#374A95"/>
<stop offset="0.738429" stop-color="#374A95" stop-opacity="0"/>
</radialGradient>
<clipPath id="clip0_1_637">
<rect width="216" height="216" fill="white"/>
</clipPath>
</defs>
</svg>
