<svg width="40" height="30" viewBox="0 0 40 30" fill="none" xmlns="http://www.w3.org/2000/svg">
<g clip-path="url(#clip0_1_755)">
<path fill-rule="evenodd" clip-rule="evenodd" d="M8.72797 21.522C8.88477 21.5558 9.03912 21.6011 9.18992 21.6576C11.2769 22.4336 13.6384 23.0922 16.1889 23.59L13.3417 30C6.0209 28.6751 0.702475 26.2705 0.955437 24.2085C1.13911 22.7118 4.21552 21.7505 8.72797 21.522ZM30.7579 24.1849C27.781 22.6376 23.0713 21.2769 17.6865 20.5676C8.6649 19.3791 1.01807 20.4471 0.0821738 22.9491C0.0755111 22.9685 0.0557449 22.98 0.0355346 22.9765C0.0153243 22.9731 0.000666274 22.9556 0.000666274 22.9351C0 21.8476 0 18.512 0 18.512C0.450846 14.6727 9.47553 12.5756 20.1646 13.832C25.5614 14.4665 30.3521 15.8351 33.7144 17.5287L30.7579 24.1849ZM36.7808 10.6251C33.0896 8.9287 28.1989 7.62359 22.7664 7.05226C11.3478 5.85137 1.61349 8.31959 0.165458 12.616C0.152355 12.6554 0.1126 12.6794 0.0717355 12.6727C0.0308707 12.666 0.000888366 12.6309 0.000888366 12.5894C0 11.0189 0 7.61226 0 7.61226C0.488157 2.29693 12.0207 -0.993286 25.7606 0.270045C31.1261 0.763378 36.0346 1.87649 40 3.3696L36.7808 10.6251Z" fill="#2B4F97"/>
</g>
<defs>
<clipPath id="clip0_1_755">
<rect width="40" height="30" fill="white"/>
</clipPath>
</defs>
</svg>
